<svg width="128" height="128" viewBox="0 0 128 128" fill="none" xmlns="http://www.w3.org/2000/svg">
<mask id="mask0" mask-type="alpha" maskUnits="userSpaceOnUse" x="0" y="16" width="128" height="96">
<rect y="16" width="128" height="96" rx="12" fill="#222222"/>
</mask>
<g mask="url(#mask0)">
<path d="M28 36.5C28 25.4543 19.0457 16.5 8 16.5C-3.0457 16.5 -12 25.4543 -12 36.5L28 36.5ZM-12 104L-12 124L28 124L28 104L-12 104ZM-12 36.5L-12 104L28 104L28 36.5L-12 36.5Z" fill="#4E87EF"/>
<path d="M140 35C140 23.9543 131.046 15 120 15C108.954 15 100 23.9543 100 35L140 35ZM100 104L100 124L140 124L140 104L100 104ZM100 35L100 104L140 104L140 35L100 35Z" fill="#4E87EF"/>
<path d="M15.7751 14.0344L2.80952 4.65926L-15.9407 30.5905L-2.97514 39.9656L15.7751 14.0344ZM-2.97514 39.9656L63.4736 88.0131L82.2239 62.0819L15.7751 14.0344L-2.97514 39.9656Z" fill="#4E87EF"/>
<path d="M129.975 39.9656L142.941 30.5905L124.19 4.65926L111.225 14.0344L129.975 39.9656ZM111.225 14.0344L44.7761 62.0819L63.5264 88.0131L129.975 39.9656L111.225 14.0344Z" fill="#4E87EF"/>
</g>
</svg>
